<svg width="18" height="18" viewBox="0 0 18 18" fill="none" xmlns="http://www.w3.org/2000/svg">
<path d="M16.9023 15.9597L12.2545 11.3118C13.136 10.2234 13.6667 8.8398 13.6667 7.33336C13.6667 3.84116 10.8255 1 7.33332 1C3.84113 1 1 3.84116 1 7.33336C1 10.8256 3.84116 13.6667 7.33336 13.6667C8.8398 13.6667 10.2234 13.136 11.3118 12.2545L15.9597 16.9024C16.0899 17.0325 16.3009 17.0325 16.4311 16.9024L16.9024 16.4311C17.0325 16.3009 17.0325 16.0898 16.9023 15.9597ZM7.33336 12.3334C4.57619 12.3334 2.33335 10.0905 2.33335 7.33336C2.33335 4.5762 4.57619 2.33335 7.33336 2.33335C10.0905 2.33335 12.3334 4.5762 12.3334 7.33336C12.3334 10.0905 10.0905 12.3334 7.33336 12.3334Z" fill="#C1C1C1" stroke="white" stroke-width="0.6"/>
</svg>
