<svg width="16" height="16" viewBox="0 0 16 16" fill="none" xmlns="http://www.w3.org/2000/svg">
<path d="M15.1193 9.73733C15.6213 9.67733 15.9993 9.25133 15.9993 8.74667V7.25333C16 6.74867 15.622 6.32267 15.122 6.26267L15.1193 9.73733ZM15.1193 9.73733L13.8687 9.89667L15.1193 9.73733ZM9.73733 15.122L9.89667 13.8687C10.2147 13.7653 10.5213 13.638 10.8127 13.4893L11.8093 14.2633C12.2127 14.5767 12.782 14.54 13.1287 14.182L14.1787 13.132L9.73733 15.122ZM9.73733 15.122C9.67733 15.622 9.25133 16 8.74667 16H7.25333C6.74867 16 6.32267 15.622 6.26267 15.1187L6.10333 13.868C5.78533 13.7653 5.47867 13.638 5.18733 13.4887L4.19133 14.2627C3.78733 14.5753 3.21867 14.5393 2.868 14.1787L1.818 13.1287C1.46 12.782 1.42333 12.2127 1.73667 11.8093L2.51067 10.8127C2.362 10.5213 2.23467 10.2147 2.13133 9.89667L0.878 9.73733L9.73733 15.122ZM15.0589 6.75867L15.0589 6.75869L15.0624 6.75911C15.3109 6.78893 15.4997 7.00142 15.4993 7.25267V7.25333V8.74667C15.4993 8.99794 15.3108 9.21089 15.06 9.24087L15.06 9.24085L15.0561 9.24134L13.8055 9.40068L13.4904 9.44081L13.3928 9.74305C13.2984 10.0355 13.1814 10.3173 13.0444 10.5846L12.8991 10.868L13.0945 11.1195L13.8682 12.1151C13.8683 12.1152 13.8684 12.1153 13.8685 12.1154C13.8685 12.1154 13.8685 12.1155 13.8685 12.1155C14.0289 12.3226 14.0048 12.604 13.8304 12.7732L13.8304 12.7732L13.8251 12.7784L12.7751 13.8284L12.7751 13.8284L12.7695 13.8342C12.6053 14.0037 12.3237 14.0298 12.1161 13.8685L12.116 13.8684L11.1193 13.0944L10.8684 12.8996L10.5854 13.044C10.3176 13.1806 10.0352 13.2979 9.74215 13.3931L9.44064 13.4911L9.40066 13.8056L9.24133 15.0589L9.24131 15.0589L9.2409 15.0624C9.21109 15.3108 8.99853 15.5 8.74667 15.5H7.25333C7.00245 15.5 6.78924 15.3119 6.75915 15.0595L6.75917 15.0595L6.75866 15.0555L6.59932 13.8048L6.55919 13.4898L6.25695 13.3922C5.96448 13.2978 5.68272 13.1807 5.41541 13.0437L5.132 12.8984L4.88053 13.0939L3.88531 13.8673C3.8852 13.8673 3.88509 13.8674 3.88497 13.8675C3.67716 14.0281 3.39535 14.0038 3.22649 13.8301L3.22652 13.8301L3.22155 13.8251L2.17155 12.7751L2.1716 12.7751L2.16582 12.7695C1.99629 12.6053 1.97022 12.3237 2.13152 12.1161L2.13157 12.116L2.90557 11.1193L3.10045 10.8684L2.95603 10.5854C2.81936 10.3176 2.7021 10.0352 2.60686 9.74215L2.50888 9.44064L2.19439 9.40066L0.941057 9.24133L0.941058 9.24131L0.937573 9.2409C0.68916 9.21109 0.5 8.99852 0.5 8.74667V7.25333C0.5 7.00206 0.68854 6.78911 0.939339 6.75913L0.93934 6.75915L0.943156 6.75866L2.19449 6.59933L2.50891 6.55929L2.60686 6.25785C2.70229 5.96416 2.81888 5.68217 2.95562 5.41541L3.10089 5.132L2.90547 4.88053L2.13176 3.88491C2.13175 3.88489 2.13173 3.88487 2.13172 3.88485C1.97107 3.67765 1.99512 3.39543 2.16955 3.22614L2.16959 3.22618L2.17477 3.221L3.22477 2.17167L3.22482 2.17171L3.23019 2.16617C3.39501 1.99628 3.67693 1.97079 3.88401 2.13159L4.87986 2.90547L5.13133 3.10089L5.41474 2.95562C5.68148 2.81889 5.96338 2.70235 6.25756 2.60695L6.55933 2.5091L6.59934 2.19439L6.75867 0.941056L6.75869 0.941058L6.75911 0.937573C6.78891 0.689161 7.00147 0.5 7.25333 0.5H8.74667C8.99794 0.5 9.21089 0.688539 9.24087 0.939339L9.24085 0.939341L9.24134 0.943156L9.40067 2.19449L9.44073 2.50912L9.74244 2.60695C10.036 2.70215 10.3183 2.81938 10.5861 2.95603L10.8693 3.10055L11.1203 2.90537L12.1147 2.13208C12.1148 2.13201 12.1149 2.13194 12.115 2.13187C12.3229 1.97113 12.6049 1.99584 12.7729 2.16921L12.7728 2.16925L12.7784 2.17489L13.8284 3.22489L13.8284 3.22493L13.8342 3.23053C14.0037 3.39469 14.0298 3.6763 13.8685 3.88392L13.8684 3.88399L13.0944 4.88066L12.8996 5.1316L13.044 5.4146C13.1806 5.68242 13.2979 5.96475 13.3931 6.25785L13.4911 6.55936L13.8056 6.59934L15.0589 6.75867ZM4.16667 8C4.16667 10.1141 5.88586 11.8333 8 11.8333C10.1141 11.8333 11.8333 10.1141 11.8333 8C11.8333 5.88586 10.1141 4.16667 8 4.16667C5.88586 4.16667 4.16667 5.88586 4.16667 8Z" stroke="black"/>
</svg>
